<svg xmlns="http://www.w3.org/2000/svg" width="90" height="90" viewBox="0 0 90 90"><defs><clipPath id="zm3wa"><path fill="#fff" d="M90 45c0 24.853-20.147 45-45 45S0 69.853 0 45 20.147 0 45 0s45 20.147 45 45z"/></clipPath></defs><g><g><path fill="none" stroke="#4985ff" stroke-miterlimit="50" stroke-width="2" d="M90 45c0 24.853-20.147 45-45 45S0 69.853 0 45 20.147 0 45 0s45 20.147 45 45z" clip-path="url(&quot;#zm3wa&quot;)"/></g><g><g/><g><g><g><g><path fill="#4985ff" d="M64.337 25c.368 0 .666.298.666.667V63a1.985 1.985 0 0 1-1.933 2h-29.4a6.007 6.007 0 0 1-6-6v-1.333c0-.369.299-.667.667-.667h5.333V45h1.333v12H57.67c.368 0 .667.298.667.667V59c0 .16.007.318.024.477 0 .009.004.019.004.028a4.673 4.673 0 0 0 4.138 4.134c.01.004.019.004.029.004.116.012.234.014.352.018.057 0 .115.006.172.006A.656.656 0 0 0 63.67 63V26.333H35.003v9.334H33.67v-10c0-.369.298-.667.667-.667zM59.23 63.669a5.879 5.879 0 0 1-.913-.922l-.021-.03a5.982 5.982 0 0 1-.352-.492l-.038-.067c-.1-.16-.192-.324-.276-.493-.016-.03-.03-.064-.046-.096a5.876 5.876 0 0 1-.393-1.094c-.014-.056-.03-.11-.041-.166a5.793 5.793 0 0 1-.084-.48c-.008-.057-.02-.113-.026-.171a6.155 6.155 0 0 1-.038-.658v-.667h-28V59a4.672 4.672 0 0 0 4.667 4.667z"/></g><g><path fill="#4985ff" d="M28.333 43.667a3.333 3.333 0 0 1 0-6.667H47c.177 0 .346.07.471.195l2.667 2.667c.26.26.26.682 0 .943L47.47 43.47a.667.667 0 0 1-.471.196zm18.021-3.334l.474 1.896 1.896-1.896-1.896-1.896zm-16.02 2H45.48L45.147 41h-13.48v-1.333h13.48l.333-1.334H30.333zm-2 0H29v-4h-.667a2 2 0 1 0 0 4z"/></g><g><path fill="#4985ff" d="M40.337 53.663a.666.666 0 0 1-.472-1.138l20-20a.666.666 0 0 1 1.138.472v20a.667.667 0 0 1-.667.666zm1.609-1.333h1.724v-1.333h1.333v1.333h1.334v-1.333h1.333v1.333h1.333v-1.333h1.333v1.333h1.334v-1.333h1.333v1.333h1.333v-1.333h1.334v1.333h1.333v-1.333h1.333v1.333h1.334v-1.333h-1.334v-1.334h1.334V48.33h-1.334v-1.333h1.334v-1.334h-1.334V44.33h1.334v-1.333h-1.334v-1.334h1.334V40.33h-1.334v-1.334h1.334v-1.333h-1.334V36.33h1.334v-1.724z"/></g><g><path fill="#4985ff" d="M49.987 49.666a.667.667 0 0 1-.472-1.138l6.344-6.343a.667.667 0 0 1 1.138.471V49a.667.667 0 0 1-.667.666zm1.61-1.333h4.066v-4.067z"/></g><g><path fill="#4985ff" d="M55.663 29H42.33v1.333h13.333z"/></g><g><path fill="#4985ff" d="M57.663 31.67H40.33v1.333h17.333z"/></g><g><path fill="#4985ff" d="M40.33 45.67h-4v1.333h4z"/></g><g><path fill="#4985ff" d="M38.997 48.33H36.33v1.333h2.667z"/></g></g></g></g></g></g></svg>