<svg xmlns="http://www.w3.org/2000/svg" width="15" height="13" viewBox="0 0 15 13"><g><g><g/><g><g><g><path fill="#999" d="M13.169.79c1.012 0 1.834.826 1.831 1.837v7.744a1.836 1.836 0 0 1-1.834 1.834H1.834A1.836 1.836 0 0 1 0 10.371V2.624C0 1.612.822.79 1.834.79zm.993 9.581V2.627a.997.997 0 0 0-.996-.996H1.834a.997.997 0 0 0-.996.996v7.744c0 .55.447.996.996.996H13.17c.55 0 .996-.447.996-.996z"/></g><g><path fill="#999" d="M9.46 6.404l3.668-3.29a.421.421 0 0 0 .031-.593.421.421 0 0 0-.593-.03L7.507 7.03l-.987-.882a.621.621 0 0 0-.074-.068L2.43 2.487a.418.418 0 0 0-.593.034.418.418 0 0 0 .034.593l3.712 3.318-3.696 3.46a.42.42 0 0 0 .574.615l3.752-3.51 1.018.909a.419.419 0 0 0 .559-.003l1.046-.937 3.73 3.544a.419.419 0 0 0 .577-.608z"/></g></g></g></g></g></svg>