<svg xmlns="http://www.w3.org/2000/svg" width="11" height="15" viewBox="0 0 11 15"><g><g><g/><g><path fill="#999" d="M10.985 5.497c0 1.393-.878 3.36-2.608 5.848a39.273 39.273 0 0 1-2.562 3.285l-.328.37-.328-.37a39.22 39.22 0 0 1-2.561-3.285C.868 8.857-.01 6.89-.01 5.497A5.504 5.504 0 0 1 5.487 0a5.504 5.504 0 0 1 5.498 5.497zm-.877 0a4.626 4.626 0 0 0-4.62-4.62 4.626 4.626 0 0 0-4.621 4.62c0 1.193.848 3.042 2.45 5.347a39.84 39.84 0 0 0 2.17 2.822c.456-.54 1.32-1.599 2.175-2.829 1.6-2.301 2.446-4.148 2.446-5.34z"/></g><g><path fill="#999" d="M8.74 5.275a3.248 3.248 0 0 1-3.245 3.244A3.248 3.248 0 0 1 2.25 5.275 3.248 3.248 0 0 1 5.495 2.03a3.248 3.248 0 0 1 3.244 3.245zm-.878 0a2.37 2.37 0 0 0-2.367-2.368 2.37 2.37 0 0 0-2.368 2.368 2.37 2.37 0 0 0 2.368 2.367 2.37 2.37 0 0 0 2.367-2.367z"/></g></g></g></svg>