<svg xmlns="http://www.w3.org/2000/svg" width="15" height="15" viewBox="0 0 15 15"><g><g><g/><g><g><g><g><path fill="#999" d="M14.606 11.571c.393.261.51.785.268 1.189l-.764 1.269a1.789 1.789 0 0 1-1.06.816 4.426 4.426 0 0 1-1.174.154c-1.724 0-4.232-.906-7.6-4.275C.04 6.49-.305 3.614.153 1.95A1.79 1.79 0 0 1 .97.889L2.24.126a.882.882 0 0 1 1.188.268L5.453 3.43a.887.887 0 0 1-.193 1.186L4.123 5.5a.378.378 0 0 0-.1.487l.093.168c.304.557.683 1.251 2.08 2.65 1.399 1.398 2.093 1.776 2.65 2.08l.169.093a.378.378 0 0 0 .484-.102l.885-1.137a.886.886 0 0 1 1.186-.193zm-.163.933a.382.382 0 0 0-.116-.516l-3.036-2.025a.385.385 0 0 0-.515.084l-.884 1.136a.875.875 0 0 1-1.123.232l-.164-.09c-.586-.32-1.314-.717-2.764-2.167-1.45-1.45-1.847-2.179-2.167-2.765l-.09-.164a.875.875 0 0 1 .232-1.122l1.136-.885a.385.385 0 0 0 .084-.514l-.924-1.385-1.1-1.651a.382.382 0 0 0-.515-.116l-1.27.761c-.288.169-.5.443-.591.764-.422 1.538-.073 4.224 3.993 8.29 4.066 4.066 6.752 4.415 8.29 3.993.32-.091.594-.303.762-.59z"/></g><g><path fill="#999" d="M8.5 2.5a4.254 4.254 0 0 1 4.25 4.25.25.25 0 1 0 .5 0A4.755 4.755 0 0 0 8.5 2a.25.25 0 1 0 0 .5z"/></g><g><path fill="#999" d="M8.5 4a2.753 2.753 0 0 1 2.75 2.75.25.25 0 0 0 .5 0A3.253 3.253 0 0 0 8.5 3.5a.25.25 0 1 0 0 .5z"/></g><g><path fill="#999" d="M8.5 5.5c.69 0 1.249.56 1.25 1.25a.25.25 0 1 0 .5 0A1.752 1.752 0 0 0 8.5 5a.25.25 0 1 0 0 .5z"/></g></g></g></g></g></g></svg>