<svg xmlns="http://www.w3.org/2000/svg" width="30" height="28" viewBox="0 0 30 28"><g><g><g/><g><path fill="#4985ff" d="M11.84 20.019a.493.493 0 0 1-.32-.118l-3.206-2.73a.495.495 0 0 1 0-.754l3.205-2.729a.495.495 0 1 1 .642.754L9.4 16.794l2.762 2.352a.495.495 0 0 1-.321.873z"/></g><g><path fill="#4985ff" d="M18.166 20.019a.495.495 0 0 1-.321-.873l2.761-2.352-2.762-2.352a.495.495 0 0 1 .642-.754l3.205 2.73a.495.495 0 0 1 0 .754L18.486 19.9a.493.493 0 0 1-.32.118z"/></g><g><path fill="#4985ff" d="M13.866 22.074a.495.495 0 0 1-.485-.598l1.997-9.483a.495.495 0 0 1 .97.204l-1.998 9.484a.495.495 0 0 1-.484.393z"/></g><g><path fill="#4985ff" d="M3.325 27.238A3.33 3.33 0 0 1 0 23.913V4.095A3.33 3.33 0 0 1 3.325.77h23.35A3.33 3.33 0 0 1 30 4.095v19.818a3.33 3.33 0 0 1-3.325 3.325zm0-25.477A2.338 2.338 0 0 0 .991 4.095v19.818a2.338 2.338 0 0 0 2.334 2.335h23.35a2.338 2.338 0 0 0 2.334-2.335V4.095a2.338 2.338 0 0 0-2.335-2.334z"/></g><g><path fill="#4985ff" d="M29.505 8.7H.495a.495.495 0 1 1 0-.99h29.01a.495.495 0 0 1 0 .99z"/></g><g><path fill="#4985ff" d="M8.467 6.325A1.57 1.57 0 0 1 6.9 4.757 1.57 1.57 0 0 1 8.467 3.19a1.57 1.57 0 0 1 1.568 1.567 1.57 1.57 0 0 1-1.568 1.568zm0-2.144a.578.578 0 1 0 .002 1.155.578.578 0 0 0-.002-1.155z"/></g><g><path fill="#4985ff" d="M3.647 6.315A1.57 1.57 0 0 1 2.08 4.747 1.57 1.57 0 0 1 3.647 3.18a1.57 1.57 0 0 1 1.568 1.567 1.57 1.57 0 0 1-1.568 1.568zm0-2.144a.578.578 0 1 0 .002 1.155.578.578 0 0 0-.002-1.155z"/></g><g><path fill="#4985ff" d="M13.277 6.344a1.57 1.57 0 0 1-1.567-1.567c0-.864.703-1.567 1.567-1.567a1.57 1.57 0 0 1 1.567 1.567 1.57 1.57 0 0 1-1.567 1.567zm0-2.144a.577.577 0 1 0 .002 1.155.577.577 0 0 0-.002-1.155z"/></g></g></g></svg>